# xmcd CD database file
#
# Track frame offsets:
#	150
#	13189
#	27552
#	41402
#	53541
#	68680
#	80933
#	94766
#	107991
#	121251
#	134382
#	148629
#	162948
#	176057
#
# Disc length: 2517 seconds
#
# Revision: 0
# Processed by: cddbd v1.5.1PL0 Copyright (c) Steve Scherf et al.
# Submitted via: ACXtractor (MTCDDB.DLL V2003.07.15)
#
DISCID=c209d30e
DTITLE=Dinah Wahington - Dinah Washington (Cocktail Hour)
DYEAR=2000
DGENRE=Blues
TTITLE0=Evil Gal Blues
TTITLE1=I Know How To Do It
TTITLE2=Salty Papa Blues
TTITLE3=Pacific Coast Blues
TTITLE4=Blow Top Blues
TTITLE5=Walking Blues
TTITLE6=No Voot, No Bout
TTITLE7=Chewing Woman Blues
TTITLE8=Rich Man's Blues
TTITLE9=Beggin' Mama Blues
TTITLE10=My Voot Is Really Vout
TTITLE11=Mellow Mama Blues
TTITLE12=Blues For A Day
TTITLE13=All Or Nothing
EXTD=ID3G:   0 YEAR: 2000
EXTT0=
EXTT1=
EXTT2=
EXTT3=
EXTT4=
EXTT5=
EXTT6=
EXTT7=
EXTT8=
EXTT9=
EXTT10=
EXTT11=
EXTT12=
EXTT13=
PLAYORDER=
